<svg width="126" height="38" viewBox="0 0 126 38" fill="none" xmlns="http://www.w3.org/2000/svg">
<g clip-path="url(#clip0_6075_29221)">
<path d="M36.9544 33.1439C35.8957 33.1439 34.9046 32.9637 33.9811 32.5808C33.0576 32.1979 32.2693 31.6348 31.5936 30.914C30.9178 30.1932 30.3772 29.2697 29.9943 28.2111C29.6114 27.1299 29.4087 25.9136 29.4087 24.5171C29.4087 23.1431 29.6114 21.9043 30.0394 20.8231C30.4673 19.7419 31.0304 18.841 31.7287 18.1202C32.427 17.3994 33.2378 16.8363 34.1613 16.4534C35.0848 16.0705 36.0534 15.8903 37.0445 15.8903C37.6751 15.8903 38.2382 15.9353 38.7338 16.0029C39.2518 16.093 39.6798 16.1831 40.0627 16.2957C40.4456 16.4083 40.761 16.5435 41.0313 16.6561C41.3016 16.7687 41.5043 16.8813 41.662 16.9714L41.1439 18.3905C40.7385 18.1427 40.2429 17.9175 39.6348 17.6922C39.0266 17.467 38.2608 17.3543 37.3598 17.3543C36.3237 17.3543 35.4227 17.5345 34.6569 17.8724C33.891 18.2328 33.2378 18.7058 32.7198 19.359C32.2017 19.9897 31.7963 20.7555 31.5485 21.634C31.2782 22.5124 31.1431 23.481 31.1431 24.5396C31.1431 25.5983 31.2782 26.6344 31.5485 27.5128C31.8188 28.3913 32.2017 29.1571 32.6973 29.7653C33.2153 30.396 33.8235 30.869 34.5668 31.2068C35.3101 31.5447 36.1435 31.7024 37.112 31.7024C38.1707 31.7024 39.0491 31.6123 39.7474 31.4095C40.4456 31.2068 40.9862 31.0041 41.3691 30.8014L41.8196 32.1754C41.707 32.2655 41.5268 32.3556 41.2565 32.4457C40.9862 32.5583 40.6484 32.6484 40.2204 32.761C39.815 32.8736 39.3194 32.9637 38.7788 33.0313C38.2382 33.1214 37.6301 33.1439 36.9544 33.1439Z" fill="white"/>
<path d="M48.0138 20.1699C48.8247 20.1699 49.5229 20.2825 50.086 20.5078C50.6492 20.733 51.0996 21.0484 51.46 21.4538C51.8204 21.8592 52.0682 22.3323 52.2259 22.8954C52.3835 23.4585 52.4736 24.0666 52.4736 24.7198V32.5133C52.316 32.5583 52.0907 32.6034 51.7754 32.6709C51.4826 32.716 51.1222 32.7836 50.7167 32.8511C50.3113 32.9187 49.8833 32.9638 49.3878 33.0088C48.8923 33.0539 48.3967 33.0764 47.9012 33.0764C47.248 33.0764 46.6398 33.0088 46.0992 32.8511C45.5586 32.6935 45.0631 32.4908 44.6577 32.1754C44.2522 31.8601 43.9369 31.4772 43.7116 30.9816C43.4864 30.4861 43.3738 29.9005 43.3738 29.2022C43.3738 28.5039 43.5089 27.9634 43.7567 27.4903C44.0045 27.0173 44.3649 26.6119 44.8379 26.3191C45.2884 26.0037 45.8515 25.7785 46.4821 25.6433C47.1128 25.5082 47.8111 25.4181 48.5544 25.4181C48.7796 25.4181 49.0049 25.4406 49.2526 25.4631C49.5004 25.4857 49.7482 25.5082 49.9734 25.5532C50.1987 25.5983 50.4014 25.6433 50.5591 25.6659C50.7167 25.6884 50.8519 25.7334 50.8969 25.7785V25.0127C50.8969 24.5847 50.8744 24.1567 50.8068 23.7513C50.7392 23.3459 50.6041 22.9855 50.3789 22.6476C50.1536 22.3323 49.8608 22.062 49.4779 21.8592C49.095 21.6565 48.5769 21.5664 47.9462 21.5664C47.0453 21.5664 46.3695 21.634 45.919 21.7466C45.4685 21.8818 45.1532 21.9719 44.9505 22.062L44.7252 20.7105C44.9955 20.5754 45.4235 20.4627 45.9866 20.3501C46.5272 20.215 47.2029 20.1699 48.0138 20.1699ZM48.1489 31.6574C48.7571 31.6574 49.2752 31.6348 49.7257 31.5898C50.1761 31.5447 50.5591 31.4997 50.8744 31.4321V27.0849C50.6942 26.9948 50.4239 26.9272 50.041 26.8371C49.6581 26.747 49.14 26.702 48.4643 26.702C48.0814 26.702 47.6759 26.7245 47.2705 26.7921C46.8651 26.8371 46.4821 26.9723 46.1218 27.1525C45.7614 27.3327 45.4911 27.5804 45.2658 27.8958C45.0406 28.2111 44.928 28.6391 44.928 29.1571C44.928 29.6076 44.9955 30.0131 45.1532 30.3284C45.3109 30.6438 45.5136 30.8915 45.8064 31.0942C46.0767 31.2744 46.4146 31.4321 46.82 31.5222C47.2029 31.6348 47.6534 31.6574 48.1489 31.6574Z" fill="white"/>
<path d="M55.7848 20.8681C56.2353 20.733 56.866 20.5978 57.6543 20.4402C58.4427 20.2825 59.3887 20.1924 60.5149 20.1924C61.4609 20.1924 62.2268 20.3275 62.8574 20.5978C63.4881 20.8681 63.9837 21.251 64.3666 21.7466C64.7495 22.2421 64.9973 22.8503 65.1775 23.5485C65.3351 24.2468 65.4252 25.0126 65.4252 25.8685V32.7835H63.871V26.3866C63.871 25.5081 63.8035 24.7648 63.6908 24.1567C63.5782 23.5485 63.3755 23.053 63.1052 22.6701C62.8349 22.2871 62.452 22.0169 62.0015 21.8367C61.551 21.679 60.9879 21.5889 60.2897 21.5889C59.5689 21.5889 58.9157 21.6339 58.3976 21.7015C57.857 21.7916 57.5192 21.8592 57.3615 21.9268V32.7835H55.7848V20.8681Z" fill="white"/>
<path d="M79.3452 26.6344C79.3452 27.6029 79.2101 28.4814 78.9172 29.2922C78.6469 30.0806 78.2415 30.7563 77.746 31.3194C77.2504 31.8825 76.6423 32.3105 75.9665 32.6258C75.2908 32.9412 74.525 33.0988 73.6916 33.0988C72.8582 33.0988 72.1149 32.9412 71.4166 32.6258C70.7409 32.3105 70.1327 31.8825 69.6372 31.3194C69.1417 30.7563 68.7362 30.0806 68.4659 29.2922C68.1956 28.5039 68.038 27.6029 68.038 26.6344C68.038 25.6658 68.1731 24.7874 68.4659 23.9765C68.7362 23.1881 69.1417 22.4899 69.6372 21.9268C70.1327 21.3637 70.7409 20.9132 71.4166 20.6204C72.0924 20.305 72.8582 20.1473 73.6916 20.1473C74.525 20.1473 75.2683 20.305 75.9665 20.6204C76.6423 20.9357 77.2504 21.3637 77.746 21.9268C78.2415 22.4899 78.6469 23.1656 78.9172 23.9765C79.2101 24.7874 79.3452 25.6658 79.3452 26.6344ZM77.7009 26.6344C77.7009 25.0802 77.3405 23.8639 76.6198 22.9404C75.899 22.0169 74.9304 21.5664 73.7141 21.5664C72.4978 21.5664 71.5292 22.0169 70.8085 22.9404C70.0877 23.8639 69.7273 25.0802 69.7273 26.6344C69.7273 28.1885 70.0877 29.4049 70.8085 30.3058C71.5292 31.2068 72.4978 31.6573 73.7141 31.6573C74.9304 31.6573 75.899 31.2068 76.6198 30.3058C77.3405 29.4049 77.7009 28.166 77.7009 26.6344Z" fill="white"/>
<path d="M82.1383 20.8681C82.5888 20.733 83.2195 20.5978 84.0078 20.4402C84.7962 20.2825 85.7422 20.1924 86.8684 20.1924C87.8144 20.1924 88.5803 20.3275 89.211 20.5978C89.8416 20.8681 90.3372 21.251 90.7201 21.7466C91.103 22.2421 91.3508 22.8503 91.531 23.5485C91.6886 24.2468 91.7787 25.0126 91.7787 25.8685V32.7835H90.2246V26.3866C90.2246 25.5081 90.157 24.7648 90.0444 24.1567C89.9317 23.5485 89.729 23.053 89.4587 22.6701C89.1884 22.2871 88.8055 22.0169 88.355 21.8367C87.9045 21.679 87.3414 21.5889 86.6432 21.5889C85.9224 21.5889 85.2692 21.6339 84.7511 21.7015C84.2105 21.7916 83.8727 21.8592 83.715 21.9268V32.7835H82.1383V20.8681Z" fill="white"/>
<path d="M96.9593 16.7237C96.9593 17.0841 96.8467 17.3769 96.6215 17.6021C96.3962 17.8274 96.126 17.9175 95.8106 17.9175C95.4953 17.9175 95.225 17.8049 94.9997 17.6021C94.7745 17.3769 94.6619 17.1066 94.6619 16.7237C94.6619 16.3408 94.7745 16.0705 94.9997 15.8452C95.225 15.62 95.4953 15.5299 95.8106 15.5299C96.126 15.5299 96.3962 15.6425 96.6215 15.8452C96.8467 16.0705 96.9593 16.3633 96.9593 16.7237ZM96.599 32.7836H95.0448V20.4402H96.599V32.7836Z" fill="white"/>
<path d="M105.181 33.0538C104.235 33.0538 103.379 32.8961 102.658 32.6033C101.937 32.3105 101.307 31.86 100.834 31.2969C100.338 30.7338 99.9776 30.0581 99.7298 29.2697C99.4821 28.4814 99.3469 27.6029 99.3469 26.6569C99.3469 25.7109 99.4821 24.8099 99.7524 23.999C100.023 23.2107 100.383 22.5124 100.879 21.9493C101.374 21.3862 101.96 20.9357 102.658 20.6204C103.356 20.305 104.145 20.1473 105.023 20.1473C105.699 20.1473 106.307 20.1924 106.893 20.305C107.478 20.4176 107.929 20.5528 108.244 20.733L107.839 22.0619C107.523 21.9042 107.163 21.7691 106.757 21.679C106.352 21.5889 105.834 21.5438 105.158 21.5438C103.784 21.5438 102.748 21.9943 102.05 22.8728C101.352 23.7512 100.991 25.0126 100.991 26.6344C100.991 27.3551 101.081 28.0309 101.239 28.6615C101.397 29.2922 101.667 29.8103 102.005 30.2383C102.365 30.6662 102.816 31.0266 103.379 31.2744C103.942 31.5221 104.64 31.6348 105.451 31.6348C106.127 31.6348 106.69 31.5672 107.14 31.4095C107.591 31.2519 107.929 31.1167 108.131 31.0041L108.469 32.333C108.176 32.4907 107.726 32.6484 107.118 32.806C106.487 32.9862 105.834 33.0538 105.181 33.0538Z" fill="white"/>
<path d="M114.506 20.1699C115.317 20.1699 116.015 20.2825 116.578 20.5078C117.141 20.733 117.592 21.0484 117.952 21.4538C118.312 21.8592 118.56 22.3323 118.718 22.8954C118.875 23.4585 118.966 24.0666 118.966 24.7198V32.5133C118.808 32.5583 118.583 32.6034 118.267 32.6709C117.975 32.716 117.614 32.7836 117.209 32.8511C116.803 32.9187 116.375 32.9638 115.88 33.0088C115.384 33.0539 114.889 33.0764 114.393 33.0764C113.74 33.0764 113.132 33.0088 112.591 32.8511C112.051 32.6935 111.555 32.4908 111.15 32.1754C110.744 31.8601 110.429 31.4772 110.204 30.9816C109.978 30.4861 109.866 29.9005 109.866 29.2022C109.866 28.5039 110.001 27.9634 110.249 27.4903C110.496 27.0173 110.857 26.6119 111.33 26.3191C111.78 26.0037 112.343 25.7785 112.974 25.6433C113.605 25.5082 114.303 25.4181 115.046 25.4181C115.272 25.4181 115.497 25.4406 115.745 25.4631C115.992 25.4857 116.24 25.5082 116.465 25.5532C116.691 25.5983 116.893 25.6433 117.051 25.6659C117.209 25.6884 117.344 25.7334 117.389 25.7785V25.0127C117.389 24.5847 117.366 24.1567 117.299 23.7513C117.231 23.3459 117.096 22.9855 116.871 22.6476C116.646 22.3323 116.353 22.062 115.97 21.8592C115.587 21.6565 115.069 21.5664 114.438 21.5664C113.537 21.5664 112.861 21.634 112.411 21.7466C111.96 21.8818 111.645 21.9719 111.442 22.062L111.217 20.7105C111.487 20.5754 111.915 20.4627 112.479 20.3501C113.042 20.215 113.717 20.1699 114.506 20.1699ZM114.663 31.6574C115.272 31.6574 115.79 31.6348 116.24 31.5898C116.691 31.5447 117.074 31.4997 117.389 31.4321V27.0849C117.209 26.9948 116.938 26.9272 116.555 26.8371C116.173 26.747 115.654 26.702 114.979 26.702C114.596 26.702 114.19 26.7245 113.785 26.7921C113.38 26.8371 112.997 26.9723 112.636 27.1525C112.276 27.3327 112.006 27.5804 111.78 27.8958C111.555 28.2111 111.442 28.6391 111.442 29.1571C111.442 29.6076 111.51 30.0131 111.668 30.3284C111.825 30.6438 112.028 30.8915 112.321 31.0942C112.591 31.2744 112.929 31.4321 113.334 31.5222C113.717 31.6348 114.168 31.6574 114.663 31.6574Z" fill="white"/>
<path d="M125.408 33.0088C124.89 32.9862 124.417 32.9187 124.034 32.8061C123.651 32.6934 123.313 32.5132 123.065 32.2655C122.795 32.0177 122.615 31.7024 122.479 31.3194C122.344 30.9365 122.277 30.441 122.277 29.8554V14.5388L123.831 14.246V29.7653C123.831 30.1482 123.876 30.4635 123.944 30.6888C124.011 30.914 124.124 31.0942 124.259 31.2293C124.394 31.3645 124.597 31.4546 124.822 31.5222C125.047 31.5897 125.318 31.6348 125.655 31.6798L125.408 33.0088Z" fill="white"/>
<path d="M23.8002 -0.372437H-0.0756836V37.4685H23.8002V-0.372437Z" fill="#E95521"/>
<path d="M5.37526 26.1613C6.74365 26.1613 7.85294 25.052 7.85294 23.6836C7.85294 22.3152 6.74365 21.2059 5.37526 21.2059C4.00688 21.2059 2.89758 22.3152 2.89758 23.6836C2.89758 25.052 4.00688 26.1613 5.37526 26.1613Z" fill="white"/>
<path d="M15.6688 20.7554C17.0372 20.7554 18.1465 19.6461 18.1465 18.2777C18.1465 16.9093 17.0372 15.8 15.6688 15.8C14.3005 15.8 13.1912 16.9093 13.1912 18.2777C13.1912 19.6461 14.3005 20.7554 15.6688 20.7554Z" fill="white"/>
<path d="M10.9612 30.058C9.18181 29.6751 7.6952 28.5489 6.8618 26.9271C6.20859 27.2199 5.46529 27.31 4.74451 27.1974C5.7581 29.6751 7.89792 31.4996 10.5333 32.0627C11.1189 32.1978 11.7045 32.2429 12.2902 32.2429C11.8397 31.6572 11.5919 30.9365 11.5694 30.1706C11.3667 30.1256 11.164 30.0805 10.9612 30.058Z" fill="white"/>
<path d="M15.1283 32.5357C16.4967 32.5357 17.606 31.4264 17.606 30.058C17.606 28.6896 16.4967 27.5803 15.1283 27.5803C13.7599 27.5803 12.6506 28.6896 12.6506 30.058C12.6506 31.4264 13.7599 32.5357 15.1283 32.5357Z" fill="white"/>
<path d="M18.5519 29.157C19.3178 28.1884 19.8584 27.0397 20.1287 25.8233C20.5791 23.7061 20.1512 21.4761 18.9574 19.6742C18.6646 20.3499 18.1916 20.913 17.5609 21.2959C18.2366 22.5573 18.4393 23.9989 18.124 25.3954C17.9663 26.0711 17.7185 26.7243 17.3582 27.31C17.9663 27.783 18.3718 28.4362 18.5519 29.157Z" fill="white"/>
<path d="M5.19507 20.1472C5.26264 20.1472 5.33021 20.1472 5.37526 20.1472C5.62303 20.1472 5.8708 20.1697 6.11857 20.2373C6.52401 20.3274 6.90692 20.4851 7.24479 20.6878C8.34848 19.0886 10.1504 18.12 12.0875 18.0975C12.0875 17.9173 12.1326 17.7146 12.1551 17.5344C12.2677 16.9938 12.493 16.5208 12.8308 16.0928C9.74499 15.8225 6.72673 17.4218 5.19507 20.1472Z" fill="white"/>
</g>
<defs>
<clipPath id="clip0_6075_29221">
<rect width="125.793" height="38" fill="white" transform="translate(0.0263672)"/>
</clipPath>
</defs>
</svg>
